<?xml version="1.0" encoding="utf-8"?>
<!-- Generator: Adobe Illustrator 23.0.2, SVG Export Plug-In . SVG Version: 6.00 Build 0)  -->
<svg version="1.1" id="Слой_1" xmlns="http://www.w3.org/2000/svg" xmlns:xlink="http://www.w3.org/1999/xlink" x="0px" y="0px"
	 viewBox="0 0 1920 117" style="enable-background:new 0 0 1920 117;" xml:space="preserve">
<style type="text/css">
	.st0{fill:#FF0066;}
	.st1{fill:#3FA9F5;}
	.st2{fill:#000033;}
	.st3{fill:none;stroke:#FFFFFF;stroke-width:4;stroke-miterlimit:12;}
	.st4{fill:none;stroke:#FFFFFF;stroke-miterlimit:10;}
</style>
<rect x="0" y="0" class="st0" width="960" height="117.2"/>
<rect x="963" y="0" class="st1" width="957" height="117.9"/>
<path class="st2" d="M0,0l960,116.9L1920,0L0,0z M961.2,81.1C961.2,81.1,961.2,81.1,961.2,81.1C961.1,81.1,961.1,81.1,961.2,81.1z"
	/>
<g>
	<line class="st3" x1="961.3" y1="116.5" x2="961.7" y2="-0.5"/>
</g>
<line class="st4" x1="1215.5" y1="-171.5" x2="1215.5" y2="-324.5"/>
<rect x="945" y="99" class="st2" width="27" height="9"/>
<rect x="954" y="81" class="st2" width="27" height="9"/>
<rect x="945" y="63" class="st2" width="27" height="9"/>
<rect x="954" y="45" class="st2" width="27" height="9"/>
<rect x="954" y="27" class="st2" width="27" height="9"/>
<rect x="954" y="9" class="st2" width="27" height="9"/>
</svg>
