<?xml version="1.0" encoding="utf-8"?>
<!-- Generator: Adobe Illustrator 23.0.2, SVG Export Plug-In . SVG Version: 6.00 Build 0)  -->
<svg version="1.1" id="Слой_1" xmlns="http://www.w3.org/2000/svg" xmlns:xlink="http://www.w3.org/1999/xlink" x="0px" y="0px"
	 viewBox="0 0 1920 1220" style="enable-background:new 0 0 1920 1080;" xml:space="preserve">
<style type="text/css">
	.st0{fill:#FF0066;}
	.st1{fill:#3FA9F5;}
	.st2{fill:#000033;}
	.st3{fill:none;stroke:#FFFFFF;stroke-width:2;stroke-miterlimit:10;}
	.st4{fill:none;stroke:#FFFFFF;stroke-miterlimit:10;}
</style>
<rect x="0" y="963" class="st0" width="960" height="117.22"/>
<rect x="963" y="963" class="st1" width="957" height="117.91"/>
<path class="st2" d="M0,963l960,116.87L1920,963L0,963z M961.17,1044.15C961.23,1044.15,961.23,1044.15,961.17,1044.15
	C961.11,1044.15,961.11,1044.15,961.17,1044.15z"/>
<g>
	<line class="st3" x1="961.27" y1="1079.51" x2="961.74" y2="962.49"/>
</g>
<line class="st4" x1="1215.5" y1="791.5" x2="1215.5" y2="638.49"/>
<rect x="945" y="1062" class="st2" width="27" height="9"/>
<rect x="954" y="1044" class="st2" width="27" height="9"/>
<rect x="945" y="1026" class="st2" width="27" height="9"/>
<rect x="954" y="1008" class="st2" width="27" height="9"/>
<rect x="954" y="990" class="st2" width="27" height="9"/>
<rect x="954" y="972" class="st2" width="27" height="9"/>
</svg>
